HIERARCHY
ROOT Hips
{
	OFFSET -211.153198 91.653587 -35.738949
	CHANNELS 6 Xposition Yposition Zposition Zrotation Yrotation Xrotation 
	JOINT LeftUpLeg
	{
		OFFSET 0.103455 1.857827 10.548507
		CHANNELS 3 Zrotation Yrotation Xrotation
		JOINT LeftLeg
		{
			OFFSET 43.500000 -0.000031 0.000008
			CHANNELS 3 Zrotation Yrotation Xrotation
			JOINT LeftFoot
			{
				OFFSET 42.372192 0.000011 -0.000014
				CHANNELS 3 Zrotation Yrotation Xrotation
				JOINT LeftToe
				{
					OFFSET 17.299997 -0.000002 0.000013
					CHANNELS 3 Zrotation Yrotation Xrotation
					End Site
					{
						OFFSET 0.000000 0.000000 0.000000
					}
				}
			}
		}
	}
	JOINT RightUpLeg
	{
		OFFSET 0.103457 1.857826 -10.548499
		CHANNELS 3 Zrotation Yrotation Xrotation
		JOINT RightLeg
		{
			OFFSET 43.500046 -0.000019 0.000015
			CHANNELS 3 Zrotation Yrotation Xrotation
			JOINT RightFoot
			{
				OFFSET 42.372261 -0.000004 0.000013
				CHANNELS 3 Zrotation Yrotation Xrotation
				JOINT RightToe
				{
					OFFSET 17.299992 -0.000006 0.000004
					CHANNELS 3 Zrotation Yrotation Xrotation
					End Site
					{
						OFFSET 0.000000 0.000000 0.000000
					}
				}
			}
		}
	}
	JOINT Spine
	{
		OFFSET 6.901968 -2.603730 -0.000002
		CHANNELS 3 Zrotation Yrotation Xrotation
		JOINT Spine1
		{
			OFFSET 12.588100 -0.000001 0.000009
			CHANNELS 3 Zrotation Yrotation Xrotation
			JOINT Spine2
			{
				OFFSET 12.343201 0.000005 -0.000005
				CHANNELS 3 Zrotation Yrotation Xrotation
				JOINT Neck
				{
					OFFSET 25.832893 -0.000008 -0.000006
					CHANNELS 3 Zrotation Yrotation Xrotation
					JOINT Head
					{
						OFFSET 11.766606 0.000005 0.000008
						CHANNELS 3 Zrotation Yrotation Xrotation
						End Site
						{
							OFFSET 0.000000 0.000000 0.000000
						}
					}
				}
				JOINT LeftShoulder
				{
					OFFSET 19.745903 -1.480373 6.000100
					CHANNELS 3 Zrotation Yrotation Xrotation
					JOINT LeftArm
					{
						OFFSET 11.284123 -0.000007 -0.000024
						CHANNELS 3 Zrotation Yrotation Xrotation
						JOINT LeftForeArm
						{
							OFFSET 33.000053 0.000004 0.000036
							CHANNELS 3 Zrotation Yrotation Xrotation
							JOINT LeftHand
							{
								OFFSET 25.200006 0.000021 -0.000003
								CHANNELS 3 Zrotation Yrotation Xrotation
								End Site
								{
									OFFSET 0.000000 0.000000 0.000000
								}
							}
						}
					}
				}
				JOINT RightShoulder
				{
					OFFSET 19.746101 -1.480381 -6.000079
					CHANNELS 3 Zrotation Yrotation Xrotation
					JOINT RightArm
					{
						OFFSET 11.284133 -0.000015 -0.000008
						CHANNELS 3 Zrotation Yrotation Xrotation
						JOINT RightForeArm
						{
							OFFSET 33.000099 0.000016 0.000006
							CHANNELS 3 Zrotation Yrotation Xrotation
							JOINT RightHand
							{
								OFFSET 25.199781 0.000142 0.000425
								CHANNELS 3 Zrotation Yrotation Xrotation
								End Site
								{
									OFFSET 0.000000 0.000000 0.000000
								}
							}
						}
					}
				}
			}
		}
	}
}
MOTION
Frames: 9
Frame Time: 0.033333
-122.957703 77.424988 -67.929253 106.296397 -4.129100 55.720051 141.650433 -15.833210 -170.655090 -43.454613 -2.184146 -6.741671 71.837184 -1.841871 -20.791786 21.454557 0.003102 -0.000001 139.369860 25.111595 138.238739 -55.161981 -4.048533 1.107129 88.065700 4.694750 29.648089 21.454555 -0.003104 -0.000015 14.776815 3.038702 0.480752 19.605863 5.951688 1.472490 19.285999 5.960595 1.436423 -12.891111 3.390082 -0.537496 -22.598424 1.853761 -0.326465 148.971685 -72.208890 30.371946 -23.038829 46.802690 16.344185 -23.691768 -11.769437 0.915699 17.201249 -1.328847 53.259804 144.265480 78.727206 -34.776663 -78.523120 -29.259130 -2.356818 -49.997316 15.522635 -1.815078 2.830601 -0.816252 -20.702659 
-127.951302 74.653137 -69.735390 102.251197 -0.828348 61.290573 144.809860 -18.129996 -171.006545 -43.859397 -0.333537 -8.101462 71.650952 -2.001575 -24.099003 21.454555 0.003096 -0.000001 148.752504 26.808195 142.206478 -56.899226 0.078216 -1.480853 106.766204 1.418035 27.962234 21.454557 -0.003105 -0.000017 14.392573 3.118111 0.335650 18.831165 6.139679 1.177195 18.511155 6.146817 1.139975 -11.030500 5.547665 -1.015489 -21.645272 1.676728 -0.175078 154.994628 -74.679212 24.083988 -12.383673 52.182799 21.275413 -23.625937 -12.012920 0.930412 17.895359 0.252384 46.371930 157.634892 77.005028 -21.313605 -73.246184 -33.840544 -4.305543 -58.959170 15.420916 -2.120796 1.534267 -2.168409 -22.784403 
-132.188599 73.019676 -71.482803 97.884124 0.609778 65.827341 144.793276 -20.960995 -166.502554 -43.856976 1.333743 -6.264414 70.555888 -2.047544 -19.398635 21.454553 0.003096 -0.000001 151.689527 23.720900 155.859084 -64.578346 -3.374073 -4.435393 110.439309 2.748655 23.649629 21.454558 -0.003114 -0.000018 13.916703 3.566218 0.514486 17.902802 7.009507 1.579244 17.582229 7.019052 1.536704 -9.143151 5.877061 -1.382235 -22.913389 1.417859 -0.466497 161.970491 -76.325527 16.894082 -2.004473 56.367495 24.940345 -24.222439 -12.351502 0.960906 18.135452 1.398894 39.801681 167.887115 75.144129 -10.944372 -65.605552 -35.975935 -7.550914 -66.840866 14.507993 -2.363787 -0.008774 -3.154868 -22.962546 
-135.680496 72.705688 -72.307701 96.561185 3.556177 69.171286 147.645522 -20.469698 -158.837866 -41.845267 -1.741963 -9.230163 68.630745 2.253230 -12.655757 21.454553 0.003102 -0.000002 154.419253 23.264304 161.137413 -70.100417 -2.498100 -4.203085 109.568105 2.780885 20.292596 21.454558 -0.003106 -0.000017 13.759325 3.311723 0.381086 17.570653 6.526816 1.264137 17.250379 6.534457 1.224549 -8.860109 4.564523 -1.745486 -24.569384 2.006923 -1.479481 173.430715 -75.268302 5.237070 6.087260 57.330313 26.493264 -24.963860 -12.814222 1.001859 17.086664 3.191075 35.379618 173.926519 73.585385 -4.814509 -57.701069 -36.654719 -9.865337 -71.042307 13.139430 -2.441101 0.405022 -2.870629 -21.728346 
-138.425095 73.742622 -72.372437 96.402021 7.357114 72.386720 151.838097 -19.547303 -159.952949 -40.173588 -4.413280 -11.998510 66.616310 5.310933 -9.487646 21.454550 0.003098 0.000003 161.118808 24.396099 166.944604 -69.298505 -2.786082 -4.207193 110.470196 2.658048 17.955650 21.454558 -0.003105 -0.000016 13.650017 2.807144 0.545556 17.343638 5.500451 1.508426 17.024057 5.509590 1.475110 -8.262261 3.441611 -2.620252 -24.376184 3.046819 -3.143734 174.264763 -74.863156 4.395032 11.437690 58.547405 28.169066 -24.526291 -13.556635 1.042715 15.559429 6.913431 34.242638 -176.775500 71.921926 4.697709 -48.816260 -38.114949 -11.732405 -70.375401 12.942456 -2.399823 -0.067173 -1.677777 -21.253411 
-140.199402 75.549469 -72.354469 96.232332 9.086866 75.148432 153.500538 -19.332506 -168.206372 -42.493370 -4.878154 -9.220999 67.410894 2.540667 -11.825039 21.454551 0.003100 0.000000 166.738701 24.066802 170.187427 -65.953604 -1.924652 -3.296296 109.051203 2.227872 16.699543 21.454558 -0.003113 -0.000016 13.054261 2.522086 0.906864 16.156794 4.892460 2.159742 15.837663 4.905545 2.130114 -8.184292 2.430843 -3.205569 -22.412641 2.890075 -3.870235 176.634880 -75.750937 1.949948 15.667447 60.529082 32.525303 -24.092727 -13.253988 1.016831 14.146400 9.834047 37.075664 -168.187630 70.760036 13.532225 -39.433083 -40.455883 -15.130927 -66.089457 14.876383 -2.359005 -0.564706 1.142851 -25.354198 
-141.361206 78.191711 -72.203644 96.375608 9.622860 78.363771 154.273346 -17.613402 -177.497861 -46.752542 -3.225717 -5.612153 68.706533 0.622142 -10.034286 21.454545 0.003090 -0.000000 171.734342 23.736801 173.802537 -60.832848 -0.987135 -2.186028 104.480700 2.067169 15.582429 21.454558 -0.003116 -0.000016 12.251640 2.394856 0.958430 14.547543 4.649868 2.212794 14.228546 4.663276 2.184631 -8.752309 0.046648 -3.478946 -21.904065 3.008289 -4.782800 -179.133445 -75.197371 -2.364969 19.539920 61.295613 38.302864 -24.687642 -13.743700 1.057138 14.173132 13.653100 43.517761 -163.390624 70.466413 18.477798 -30.002975 -42.202400 -19.415407 -59.300577 16.861094 -2.231544 -1.193257 4.614318 -29.582864 
-142.210693 81.357986 -72.090553 96.677093 9.680437 81.649085 156.012394 -14.930300 175.235087 -50.076153 -1.990725 -5.455658 69.814253 0.447223 -10.450421 21.454551 0.003099 -0.000001 176.149390 23.616501 177.328773 -54.859666 0.533998 -1.275215 97.220557 2.215987 13.823545 21.454555 -0.003108 -0.000020 11.459296 2.235136 0.931925 12.955332 4.351596 2.110180 12.636444 4.364391 2.083841 -10.283129 -2.427026 -4.038190 -20.153776 3.434276 -6.116981 -176.905888 -74.593807 -4.636963 21.445063 61.953504 41.371313 -24.365867 -13.651596 1.046352 15.035966 17.234579 48.620879 -160.219791 70.292865 21.748412 -21.917602 -43.365889 -23.311704 -49.866791 17.595768 -1.948919 0.124080 8.445455 -24.237500 
-143.028397 84.465340 -72.055107 96.739985 9.534280 84.520579 158.575805 -12.091700 169.113011 -52.287953 -0.779822 -6.248815 71.336080 1.045456 -10.749528 21.454553 0.003080 0.000002 179.530908 23.328999 -177.323309 -49.528260 0.782333 -1.379521 88.303547 2.917595 11.187473 21.454560 -0.003104 -0.000016 10.759401 2.052059 0.888310 11.547726 4.005029 1.978442 11.228981 4.017037 1.954203 -11.159222 -4.182349 -4.677694 -19.117127 3.726117 -7.332621 -175.801570 -74.389154 -5.765998 22.211640 62.613109 42.357896 -23.917620 -13.045406 1.000899 17.078859 19.350795 50.798910 -156.887888 70.492101 25.178533 -17.149434 -44.959061 -23.257590 -38.346031 15.517519 -1.476610 6.057197 10.465896 -7.777533 
